<svg xmlns="http://www.w3.org/2000/svg" viewBox="0 0 100 100">
  <polygon points="36,25 16,44 31,44" fill="#eed07a"/>
  <polygon points="36,25 64,25 69,44 31,44" fill="#f8e59a"/>
  <polygon points="64,25 84,44 69,44" fill="#dcb64a"/>
  <polygon points="16,44 31,44 50,86" fill="#e4c25a"/>
  <polygon points="31,44 50,44 50,86" fill="#d4af37"/>
  <polygon points="50,44 69,44 50,86" fill="#c9a231"/>
  <polygon points="69,44 84,44 50,86" fill="#b8901f"/>
  <polygon points="36,25 64,25 55,32 42,32" fill="#ffffff" opacity=".28"/>
  <g fill="none" stroke="#5c460f" stroke-width="1.1" stroke-linejoin="round" opacity=".38">
    <polygon points="36,25 64,25 84,44 50,86 16,44"/>
    <line x1="16" y1="44" x2="84" y2="44"/>
    <line x1="36" y1="25" x2="31" y2="44"/><line x1="64" y1="25" x2="69" y2="44"/>
    <line x1="31" y1="44" x2="50" y2="86"/><line x1="50" y1="44" x2="50" y2="86"/><line x1="69" y1="44" x2="50" y2="86"/>
  </g>
</svg>
